<svg id="Calque_1" data-name="Calque 1" xmlns="http://www.w3.org/2000/svg" viewBox="0 0 547.87 551.47"><defs><style>.cls-1{fill:#de8b04;}.cls-2{fill:#d47e00;}</style></defs><path class="cls-1" d="M626.69,484.83a5.13,5.13,0,0,1-3.69-5,5.34,5.34,0,0,1,5.09-5.5,4.8,4.8,0,0,1,2.13.3,19.28,19.28,0,0,0,7,1,28.56,28.56,0,0,0,16.23-5.4,22,22,0,0,0,8.83-17v-.57c-.06-3.11-2.09-6.94-4-9.26a14.88,14.88,0,0,0-12-5.55,13.23,13.23,0,0,0-3.7.58c-17.89,5.5-24,48.13-25.92,63.57-1.4,11.46-2.25,23-2.68,34.56q-.41,10.29-.59,20.58c-.06,3.16-.18,6.44-.12,9.6v.21a5.41,5.41,0,0,1-10.82.2v-.48c.19-12,.29-24,.81-36,.55-12.72.7-25.48.72-38.2-3.17,2.6-6.79,4.48-11.08,4.56-10.69.2-16.27-11-18.43-19.94A101,101,0,0,1,572,461.28c-7.8,11.75-22.3,31.85-34.19,32.07h-.25c-10.52,0-13.66-13.07-13.81-21.44a60.48,60.48,0,0,1,.48-8.71,67.52,67.52,0,0,1,4.64-17.95c1.38-3.26,4.16-8.78,7.88-9.82l.19-.05h.19a7.59,7.59,0,0,1,1.07-.23,5.37,5.37,0,0,1,5.3,5.52,5.15,5.15,0,0,1-3.61,5.15c-1.21,1.35-3.06,7.4-3.49,9a75.81,75.81,0,0,0-2.65,18.85l0,1.06c0,2,.65,8.54,3.63,8.48h.18c6.5-.39,16.06-13.54,19.5-18.41,3-4.24,5.78-8.6,8.5-13,1.91-3.09,3.74-6.25,5.66-9.28,1.38-2.3,2.87-4.83,5.93-4.89a5.39,5.39,0,0,1,5.5,5.31v.62a72.67,72.67,0,0,0,0,8.48c.09,4.46.34,9,.85,13.4s2.6,20.53,8.81,20.78h.17c3-.05,10.25-6,11.13-9.17-.14-3.1-.32-6.21-.58-9.3-.44-5.17-1.32-14.36-3.59-19.12a5.21,5.21,0,0,1-1.6-3.63,5.71,5.71,0,0,1,5.3-5.72c4-.08,6.16,4.56,7.18,7.77a84.88,84.88,0,0,1,3.16,16.18c5.07-16.32,14.43-35.84,32.59-36.18a25,25,0,0,1,20.39,9.3c3.5,4.27,6.33,10.53,6.43,16.12l0,1.13v.06c-.58,10.14-4.74,18.95-13,25.06A40.44,40.44,0,0,1,637,486.2a28.74,28.74,0,0,1-10.3-1.37m-180.77-18a4.85,4.85,0,0,1-1-3,5.61,5.61,0,0,1,3-5.06,45.19,45.19,0,0,1,15.44-20c5.18-3.86,12.54-7.59,19.13-7.72,8.68-.16,14.75,3.72,15.59,12.63.51,5.45-2.27,11.46-5.61,15.6-6.36,7.89-17.44,13.19-27.6,13.38a33.44,33.44,0,0,1-8.55-1.06c0,.57,0,1.14,0,1.69a13.91,13.91,0,0,0,14.3,13.4c7.88-.14,15.55-3.15,22.1-7.41,5.25-3.42,10.85-8.39,14.25-13.7a5,5,0,0,1,4.25-2.49,5.59,5.59,0,0,1,5.72,5.3,5.65,5.65,0,0,1-.85,3c-4.09,6.4-10.7,12.43-17,16.62-8.41,5.61-18.12,9.29-28.3,9.48-15.48.29-24.86-11.07-25.14-25.88a40.47,40.47,0,0,1,.26-4.79M459,461a23.44,23.44,0,0,0,6.05.8c5.82-.11,12.95-3.43,17-7.11,2.56-2.34,5.29-5.84,5.22-9.47-.05-2.73-2.15-3.44-4.59-3.39-10.29.19-19.5,10.06-23.66,19.17m-213.93-50.4c.14,1.19.29,2.38.45,3.58q1.08,8.16,2.49,16.28c.53,3.12,1,6.39,1.75,9.44s1.75,6.39,2.73,9.52c1.52,4.85,3.22,9.68,5.15,14.39,1.82,4.46,9.48,22.72,16.41,20.25,4-1.43,7.59-8.25,9.18-11.9a78.69,78.69,0,0,0,5.85-23.35c-10.46-8.26-17.85-22.45-22.2-34.86a130.53,130.53,0,0,1-3.39-13,152.34,152.34,0,0,1-2.85-18.28q-.28-3.21-.39-6.44c-.29-10.1,2-30.66,15.41-31,11.19-.31,16.77,24.75,18.55,32.8a302,302,0,0,1,5.34,34.06c.32,4.07.62,8.13.74,12.21.19,6.55,0,13.12-.33,19.66a18.44,18.44,0,0,0,8.55,1.81,23.72,23.72,0,0,0,13.91-5c4-3.27,9-6.85,14.34-7.39,7.37-.75,12.65,1.46,18.23,6.22a4.9,4.9,0,0,1,1.94,3.91,5.58,5.58,0,0,1-5.25,5.77c-4,.11-5.87-5.12-12.41-4.93-12.43.35-26,23.37-25.76,34.65.23,3.29,1.68,7.19,5.59,7.15,5.53-.07,11.39-8.92,14.2-12.71,2.48-3.34,4.85-6.79,7.43-10,1.38-1.74,4.09-5.21,6.5-5.35a5.92,5.92,0,0,1,1.92.19c5.21,1.38,8.2,10.12,9.95,14.63,1.12,2.9,4.25,12.07,7.61,12.89a2.56,2.56,0,0,0,.62.07c4.06-.12,10.18-7.94,12.89-11.38-.43-16.77-.31-33.61.09-50.38.4-17.36,1.11-34.79,2.38-52.11.5-6.86,1.09-13.75,1.91-20.58a119.43,119.43,0,0,1,2.32-14.1v0l0,0a5.37,5.37,0,0,1,10.55,1.05,4.38,4.38,0,0,1-.25,1.84,112.5,112.5,0,0,0-2.28,14c-.83,7.12-1.41,14.28-1.89,21.43-1.24,18.23-1.87,36.58-2.17,54.86q-.17,9.44-.18,18.87a50.21,50.21,0,0,1,7.49-11.43c5.46-6.15,16.51-13.25,24.95-13.28a14,14,0,0,1,14,13.69c.42,14.69-12.83,23.25-25.49,26.67a192.42,192.42,0,0,0,18.17,14.44c6.88,4.88,14.81,10.08,22.54,13.49a5.17,5.17,0,0,1,3.4,4.53,5.76,5.76,0,0,1-5.46,5.78,7.42,7.42,0,0,1-2.22-.44l-.09,0-.08,0a38.55,38.55,0,0,1-3.47-1.86c-2.16-1.23-4.31-2.51-6.44-3.8-6-3.64-11.89-7.45-17.62-11.47-5.49-3.85-21.73-15.23-23.32-22.89-2.94,9.29-4.14,19.25-5.39,28.83a5.65,5.65,0,0,1-5.24,5.06c-3.22.1-5.25-2.53-5.57-5.55v0l-.06-.87c-3.7,3.38-8.38,6.65-13.19,6.79a10.88,10.88,0,0,1-3.26-.4c-4.61-1.32-7.9-5.59-10.28-9.5a114,114,0,0,1-6.8-13.85c-6.5,9.49-16.65,23.75-28.1,24.08a12.64,12.64,0,0,1-5.09-.83c-7.49-2.93-11-9-11.19-16.81-.23-8,3.08-16.72,7.23-23.79a28.11,28.11,0,0,1-11.11-1.37c-2.13,13.92-10.61,39.94-26.36,40.28-18.81.41-29.87-39-33.15-52.84q-1.18-5-2.13-10.09c-2.68,6.5-5.61,12.87-8.61,19.23-9.49,20.09-33.94,67.48-59.24,68.2-20.14.58-22.07-30.66-22.46-44.64a262.68,262.68,0,0,1,.69-26.32c1-13.95,2.71-27.92,4.85-41.74,1.24-8,2.61-16,4.21-23.88,2.27-11.26,4.46-22.6,8.06-33.52,1.05-3.16,4.27-5.1,7.43-3.55,2.71,1.32,3.32,4.31,2.34,6.92-3.56,10.38-5.63,21.42-7.8,32.16a536.68,536.68,0,0,0-8.46,57.23,274.08,274.08,0,0,0-1.27,32.41c.24,8.48,1.1,18.2,4,26.22,1.68,4.65,3.67,8.75,9.23,8.63,8.28-1.05,17.51-11.63,22.34-17.74,9.12-11.57,17-25.18,23.62-38.3a307.05,307.05,0,0,0,18.06-42.62c-.07-1.8-.3-3.59-.35-5.39-.18-6.44-.58-19.31,5.31-23.61a5.46,5.46,0,0,1,5.17-1.08c3.82,1.43,5.08,7.83,4.88,11.45-.32,6-2.52,13-4.33,18.8M399,457.57c2.33-1.81,5.86-1.87,8.58-2.64h.08c7.83-1.8,19-7,18.76-16.52-.06-2.21-1.21-3-3.35-3-4.76.14-11,4.72-14.37,7.84a40.15,40.15,0,0,0-9.18,13.07c-.18.41-.35.82-.52,1.23M289.86,435.7c.11-3.76.1-7.51,0-11.27a245.35,245.35,0,0,0-3.77-36.68c-1.12-6.36-7-31.45-10.23-31.43-5.3,0-5.62,16.29-5.53,19.89.46,17.45,7.56,45,19.54,59.49" transform="translate(-147.01 -21.9)"/><path class="cls-1" d="M535.32,537.26l-1.64,3.21a21.35,21.35,0,0,0,2.79,1.69,22,22,0,0,0,3.15,1.31,23.29,23.29,0,0,0,3.3.8,20.56,20.56,0,0,0,3.32.27,13,13,0,0,0,4.08-.6,9.45,9.45,0,0,0,3.22-1.81,7.67,7.67,0,0,0,2.81-6.07,8.76,8.76,0,0,0-.69-3.6,6.57,6.57,0,0,0-2.07-2.58,9.5,9.5,0,0,0-3.44-1.57,20,20,0,0,0-4.8-.52,27.34,27.34,0,0,1-3.4-.18,8.09,8.09,0,0,1-2.22-.56,2.64,2.64,0,0,1-1.68-2.59,3,3,0,0,1,.42-1.57,3.82,3.82,0,0,1,1.23-1.24,6,6,0,0,1,1.89-.79,10.29,10.29,0,0,1,2.4-.27,12.7,12.7,0,0,1,2.34.23,16.12,16.12,0,0,1,2.45.68,18.15,18.15,0,0,1,2.42,1.1,19.08,19.08,0,0,1,2.15,1.38l1.7-3.17a23.18,23.18,0,0,0-2.56-1.57,18.37,18.37,0,0,0-2.72-1.16,16.64,16.64,0,0,0-2.82-.71,17.58,17.58,0,0,0-2.91-.24,13.66,13.66,0,0,0-3.88.51,8.54,8.54,0,0,0-3,1.52,6.66,6.66,0,0,0-1.9,2.33,6.94,6.94,0,0,0-.63,3,7.2,7.2,0,0,0,.58,3,4.71,4.71,0,0,0,1.72,2,9.11,9.11,0,0,0,3.3,1.17,30.38,30.38,0,0,0,5.28.46,17.26,17.26,0,0,1,3.26.37,7.41,7.41,0,0,1,2.26.85,3.78,3.78,0,0,1,1.34,1.42,4.24,4.24,0,0,1,.45,2,4.37,4.37,0,0,1-.49,2.08,4.72,4.72,0,0,1-1.45,1.66,6.54,6.54,0,0,1-2.23,1.09,10.23,10.23,0,0,1-2.81.36,13.44,13.44,0,0,1-2.65-.26,16.63,16.63,0,0,1-2.77-.76,20.09,20.09,0,0,1-2.72-1.21,19.36,19.36,0,0,1-2.39-1.53m-14.41,3.21a14.3,14.3,0,0,0,2.21-3l-2.7-2.11a14.42,14.42,0,0,1-1.87,2.43,10.52,10.52,0,0,1-2.23,1.77,9.83,9.83,0,0,1-2.57,1,11.84,11.84,0,0,1-2.91.35,10.93,10.93,0,0,1-4.08-.73,9.78,9.78,0,0,1-3.33-2.17,9.43,9.43,0,0,1-2.21-3.26,11.15,11.15,0,0,1,0-8,9.64,9.64,0,0,1,2.2-3.26,9.84,9.84,0,0,1,3.32-2.17,11.24,11.24,0,0,1,4.1-.72,12.26,12.26,0,0,1,2.75.3,10.83,10.83,0,0,1,2.5.91,10.26,10.26,0,0,1,2.13,1.48,10.81,10.81,0,0,1,1.6,1.89l2.68-2.11a13.37,13.37,0,0,0-2.11-2.49,12.63,12.63,0,0,0-2.75-1.91,13.21,13.21,0,0,0-3.23-1.2,15.47,15.47,0,0,0-3.58-.4,15.07,15.07,0,0,0-5.49,1A13,13,0,0,0,500.9,521a13.13,13.13,0,0,0-2.91,4.41,15.71,15.71,0,0,0,0,10.87,13.1,13.1,0,0,0,7.35,7.28,14.86,14.86,0,0,0,5.49,1,15.77,15.77,0,0,0,3.83-.45,13.57,13.57,0,0,0,3.39-1.38,12.92,12.92,0,0,0,2.86-2.24m-39.7,3.26h3.42v-26h-3.42Zm-23.14-22.39v22.39h3.36V521.22h9.73v-3.4H448.34v3.4h9.73Zm-39.4-3.52v25.91H441V540.2H422v-8.51h11.83v-3.52H422v-6.76h18v-3.59Zm-39,0v25.91h3.36v-19.1L392,539.36l9-14.73v19.1h3.35V517.82h-2.8L392,533.22l-9.49-15.4Zm-33.86,19.44-1.65,3.21a22,22,0,0,0,2.79,1.69,21.74,21.74,0,0,0,6.46,2.11,20.46,20.46,0,0,0,3.32.27,13,13,0,0,0,4.07-.6,9.4,9.4,0,0,0,3.23-1.81,7.7,7.7,0,0,0,2.81-6.07,8.76,8.76,0,0,0-.7-3.6,6.49,6.49,0,0,0-2.07-2.58,9.53,9.53,0,0,0-3.43-1.57,20.18,20.18,0,0,0-4.81-.52,27.28,27.28,0,0,1-3.39-.18,8.27,8.27,0,0,1-2.23-.56,2.94,2.94,0,0,1-1.25-1,2.8,2.8,0,0,1-.42-1.56,3,3,0,0,1,.42-1.57,3.72,3.72,0,0,1,1.23-1.24,6,6,0,0,1,1.88-.79,10.42,10.42,0,0,1,2.4-.27,12.7,12.7,0,0,1,2.34.23,15.8,15.8,0,0,1,2.45.68,17.72,17.72,0,0,1,2.43,1.1,18.1,18.1,0,0,1,2.14,1.38l1.7-3.17a23.07,23.07,0,0,0-2.55-1.57,18.83,18.83,0,0,0-2.72-1.16,17,17,0,0,0-2.83-.71,17.46,17.46,0,0,0-2.9-.24,13.66,13.66,0,0,0-3.88.51,8.54,8.54,0,0,0-3,1.52,6.55,6.55,0,0,0-1.9,2.33,7,7,0,0,0-.64,3,7.36,7.36,0,0,0,.58,3,4.85,4.85,0,0,0,1.72,2,9.25,9.25,0,0,0,3.3,1.17,30.6,30.6,0,0,0,5.29.46,17.15,17.15,0,0,1,3.25.37,7,7,0,0,1,2.26.85,3.63,3.63,0,0,1,1.34,1.42,4.24,4.24,0,0,1,.45,2,4.49,4.49,0,0,1-.48,2.08,4.83,4.83,0,0,1-1.45,1.66,6.63,6.63,0,0,1-2.23,1.09,10.26,10.26,0,0,1-2.82.36,13.59,13.59,0,0,1-2.65-.26A17.17,17.17,0,0,1,351,540a20,20,0,0,1-2.71-1.21,19.36,19.36,0,0,1-2.39-1.53m-31.57,6.3a15.08,15.08,0,0,0,5.57,1,15.43,15.43,0,0,0,5.61-1,13.29,13.29,0,0,0,7.44-7.32,14.47,14.47,0,0,0,1-5.44,14.68,14.68,0,0,0-1-5.45A12.87,12.87,0,0,0,330,521a13.86,13.86,0,0,0-10.12-3.86,15.35,15.35,0,0,0-5.58,1,13.11,13.11,0,0,0-7.42,7.28,14.58,14.58,0,0,0-1,5.43,14.31,14.31,0,0,0,1,5.41,13.37,13.37,0,0,0,7.42,7.34m9.81-3.32a11.94,11.94,0,0,1-4.24.72,11.68,11.68,0,0,1-4.2-.72,9.61,9.61,0,0,1-3.37-2.15,9.72,9.72,0,0,1-2.94-7.28,10.67,10.67,0,0,1,.73-4,9.38,9.38,0,0,1,2.21-3.26,9.75,9.75,0,0,1,3.37-2.15,11.9,11.9,0,0,1,4.2-.71,11.77,11.77,0,0,1,4.21.72,9.86,9.86,0,0,1,5.62,5.42,11.29,11.29,0,0,1,0,8,9.35,9.35,0,0,1-2.21,3.25,9.65,9.65,0,0,1-3.38,2.15m-30.95.23a14.67,14.67,0,0,0,2.21-3l-2.7-2.11a14.42,14.42,0,0,1-1.87,2.43,10.52,10.52,0,0,1-2.23,1.77,9.83,9.83,0,0,1-2.57,1,11.92,11.92,0,0,1-2.92.35,10.92,10.92,0,0,1-4.07-.73,9.78,9.78,0,0,1-3.33-2.17,9.43,9.43,0,0,1-2.21-3.26,11.15,11.15,0,0,1,0-8,9.64,9.64,0,0,1,2.2-3.26,9.74,9.74,0,0,1,3.32-2.17,11.23,11.23,0,0,1,4.09-.72,12.35,12.35,0,0,1,2.76.3,10.59,10.59,0,0,1,2.49.91,10.06,10.06,0,0,1,2.14,1.48,10.81,10.81,0,0,1,1.6,1.89l2.68-2.11a13.76,13.76,0,0,0-2.11-2.49,12.63,12.63,0,0,0-2.75-1.91,13.21,13.21,0,0,0-3.23-1.2,15.49,15.49,0,0,0-3.59-.4,15.11,15.11,0,0,0-5.49,1,13.17,13.17,0,0,0-7.34,7.33,15.56,15.56,0,0,0,0,10.87,13.13,13.13,0,0,0,7.34,7.28,14.9,14.9,0,0,0,5.49,1,15.85,15.85,0,0,0,3.84-.45,13.35,13.35,0,0,0,3.38-1.38,12.75,12.75,0,0,0,2.87-2.24" transform="translate(-147.01 -21.9)"/><path class="cls-1" d="M465.6,573.37a9,9,0,0,1-6.63-2.58,9.33,9.33,0,0,1,0-12.91,9.07,9.07,0,0,1,6.64-2.55,9.17,9.17,0,0,1,6.68,2.54,8.63,8.63,0,0,1,2.59,6.46,8.73,8.73,0,0,1-2.6,6.48,9.08,9.08,0,0,1-6.67,2.56m0-2.49a6.81,6.81,0,0,0,4.94-1.85,6.73,6.73,0,0,0,0-9.39,6.81,6.81,0,0,0-4.92-1.85,6.69,6.69,0,0,0-4.9,1.85,6.73,6.73,0,0,0,0,9.39,6.73,6.73,0,0,0,4.9,1.85m-31.64,2V555.78h1.24l9.59,12v-12h2.32v17.06h-1.24l-9.59-12v12Zm-24.58,0,7.68-17.06h1.48l7.74,17.06h-2.52l-2-4.33h-8l-1.95,4.33Zm5.47-6.59h5.9l-2.93-6.53Zm-24.23,6.59V555.78H393v14.61h11.22v2.45Zm-13-17.1H380v17.1h-2.39Zm-26.9,17.1V555.78h2l6.17,10,6.19-10h2v17.06h-2.35V560.58l-5.8,9.48-5.78-9.48v12.26Z" transform="translate(-147.01 -21.9)"/><path class="cls-1" d="M683.47,424.93V428h2.41a1.9,1.9,0,0,0,1.28-.42,1.45,1.45,0,0,0,.48-1.16c0-1-.57-1.48-1.71-1.48Zm1.95,4.82h-1.95v4.69h-1.9V423.21h4.63a3.46,3.46,0,0,1,2.37.86,3,3,0,0,1,1,2.34,3.09,3.09,0,0,1-.61,1.88,3.35,3.35,0,0,1-1.58,1.18l2.6,5h-2.18Zm7.6-.93a8.25,8.25,0,0,0-.6-3.17,7.7,7.7,0,0,0-1.65-2.53,7.44,7.44,0,0,0-2.47-1.67,8.36,8.36,0,0,0-6.22,0,7.38,7.38,0,0,0-2.48,1.67,7.7,7.7,0,0,0-1.65,2.53,8.25,8.25,0,0,0-.6,3.17A8.12,8.12,0,0,0,678,432a7.51,7.51,0,0,0,1.65,2.51,7.61,7.61,0,0,0,2.48,1.64,8.23,8.23,0,0,0,6.22,0,7.67,7.67,0,0,0,2.47-1.64,7.51,7.51,0,0,0,1.65-2.51,8.12,8.12,0,0,0,.6-3.13m1.86,0a9.51,9.51,0,0,1-2.78,6.87,9.48,9.48,0,0,1-3.07,2,10.71,10.71,0,0,1-7.67,0,9.31,9.31,0,0,1-3.08-2,9.45,9.45,0,0,1-2-3,9.59,9.59,0,0,1-.75-3.83,9.89,9.89,0,0,1,.75-3.87,9.28,9.28,0,0,1,5.12-5.12,10.18,10.18,0,0,1,7.67,0,9.37,9.37,0,0,1,3.07,2,9.52,9.52,0,0,1,2,3.08,10.07,10.07,0,0,1,.74,3.87" transform="translate(-147.01 -21.9)"/><path class="cls-2" d="M397,77.71A85.21,85.21,0,1,1,353.12,190,85.2,85.2,0,0,1,397,77.71M381.63,240.09c-3.47,12-11.84,30.37-5,41.46,6.27-19.4,20.28-23,28-29.86-2.4,9.7-9.49,35.44,13,63.16-3.74-25.28,7.49-49.45,17.95-64.81,12.08,13.8,13.62,27.4,8.94,43.36,12.72-13.67,19.43-21.57,17.19-46.65,15.36,21.51,29.89,28,49.14,30.12-15.21-10.41-29.86-33.19-20.35-47,12.24-.87,25.76,2.8,29.94,15,2.29-14.73-7.74-21.3-14.56-29.42,26,3.17,40.5-9.5,58.2,6.34-7.72-33.09-24.28-18.72-42.32-39.63,9.91-14,28.71,1.63,43.59-22.7-9.16,10.26-31.32.6-44.68-14,21.4-7.94,42.91-8.91,49-38.22-20.42,21.46-36.82,9.13-53.25,3.92,4-14.12,9.58-24.41,29-26.46-20-10.17-38.08-.52-48.25,2,10.33-11.2,20-34.55,1.38-64.84,4.13,40.78-18.91,32.76-37.4,51.25-4.51-13.67-3.7-26.5,11.9-40.07-21.3,9.33-27.34,12-37.3,33.1.45-11.7-2.35-34.95-28.55-42.68,9.29,17.8,13.9,31.34-4.5,45.56-9.43-1-15.14-17.74-9.36-29.05-12.14,6.58-14.67,26.08-10.38,38.14-15.15-18.17-42-8.61-58-37.83-5.49,32.24,24.53,35.47,30.54,62.49-14.52,9.2-25.37-9.49-48.95,4.29,18.19,3.44,28.51,18.86,34,35-26.11-1.24-43,.23-58.59,32.3,22-12.75,40.09-17.48,61.42-1.91-5.12,8-6.46,28.63-26.9,30.23,12.85,14.59,36.61,1.55,43.87,5.33-2.85,11.63-10.88,32.92-37.63,48.24,24.18,7.51,45.71-5.77,58.92-16.17m48.14-13.77c-25.39-7-49.9-24.23-56.21-50.93-9.22-39,19.23-80.74,62.71-77.1,16.3,1.37,32.38,10.16,43.6,29.33,15.23,25.51,7,58.51-17.89,72.15-22.19,12.17-57.16.84-63.85-27.12-5.55-23.63,10.49-49.44,35.55-47.22a30.35,30.35,0,0,1,26.54,21.41c5,17.86-6.09,37.78-26.42,35.47-9.26-1.06-16.71-6.51-18-16.07-2.26-21.86,24.72-25.17,26.63-7.75.79,7.26-7,16.59-14.18,8.58-1.45-1.63-5.15-9.15-5.09-1.11,0,2.16,2.92,7.51,7.32,8.78,12.57,3.62,22.11-7.94,20.45-19.1-.82-5.54-3.77-11-7.44-13.92-6.67-5.36-16.22-5.83-24.91-.61s-12.29,15.67-11.3,25a28.75,28.75,0,0,0,11.47,20.22,29.39,29.39,0,0,0,14.51,5.76,36.82,36.82,0,0,0,16.49-1.77,32.6,32.6,0,0,0,20.11-19c6.62-18.44,1.28-34.86-9.51-45.73A46,46,0,0,0,425.76,112c-31.45,1.74-50.39,38.61-41.16,67.13,5.45,16.83,19.07,30.42,35.19,37.31A59,59,0,0,0,485.14,204c17.73-18.93,22.49-49.13,14.63-73.42-9.45-29.17-40.22-49.48-70.67-49-51.72.84-82.7,54.22-67.4,100.16,5.47,16.44,16.61,27.77,28.79,34.95s25.42,10.18,35.05,9.94a36.17,36.17,0,0,0,4.23-.35" transform="translate(-147.01 -21.9)"/></svg>